<?xml version="1.0" encoding="utf-8"?>
<!-- Generator: Adobe Illustrator 21.1.0, SVG Export Plug-In . SVG Version: 6.00 Build 0)  -->
<svg version="1.1" id="Calque_1" xmlns="http://www.w3.org/2000/svg" xmlns:xlink="http://www.w3.org/1999/xlink" x="0px" y="0px"
	 viewBox="0 0 595.3 841.9" style="enable-background:new 0 0 595.3 841.9;" xml:space="preserve">
<style type="text/css">
	.st0{fill:#7A7A7A;}
	.st1{fill:#CE1D1D;}
	.st2{fill:#205A95;}
	.st3{fill:#656768;}
	.st4{fill:none;stroke:#B6B6B7;stroke-miterlimit:10;}
</style>
<rect x="127.3" y="72.9" class="st0" width="332.1" height="220.7"/>
<circle class="st1" cx="180.4" cy="133.1" r="15"/>
<circle class="st1" cx="390.1" cy="134.1" r="15"/>
<rect x="271.7" y="179.2" transform="matrix(6.123234e-17 -1 1 6.123234e-17 99.5116 481.6183)" class="st2" width="37.7" height="23.6"/>
<rect x="179.4" y="234.4" class="st3" width="237.8" height="17.1"/>
<line class="st4" x1="195.1" y1="234.2" x2="195.1" y2="251.1"/>
<line class="st4" x1="216.4" y1="234.2" x2="216.4" y2="251.1"/>
<line class="st4" x1="236.8" y1="234.2" x2="236.8" y2="251.1"/>
<line class="st4" x1="258.1" y1="234.2" x2="258.1" y2="251.1"/>
<line class="st4" x1="278.9" y1="234.2" x2="278.9" y2="251.1"/>
<line class="st4" x1="300.2" y1="234.2" x2="300.2" y2="251.1"/>
<line class="st4" x1="320.6" y1="234.2" x2="320.6" y2="251.1"/>
<line class="st4" x1="341.9" y1="234.2" x2="341.9" y2="251.1"/>
<line class="st4" x1="359.5" y1="234.2" x2="359.5" y2="251.1"/>
<line class="st4" x1="380" y1="234.2" x2="380" y2="251.1"/>
<line class="st4" x1="401.3" y1="234.2" x2="401.3" y2="251.1"/>
<rect x="61.3" y="376.7" class="st0" width="478.8" height="299.7"/>
</svg>
