<svg id="Calque_1" data-name="Calque 1" xmlns="http://www.w3.org/2000/svg" viewBox="0 0 659.89 659.89"><defs><style>.cls-1{fill:none;stroke-width:9px;}.cls-1,.cls-2{stroke:#1d1d1b;stroke-miterlimit:10;}.cls-2{fill:#db2331;}</style></defs><title>what</title><line class="cls-1" x1="3.18" y1="3.18" x2="656.7" y2="656.7"/><line class="cls-1" x1="656.7" y1="3.18" x2="3.18" y2="656.7"/><polygon class="cls-2" points="493.32 438.39 406.6 391.08 472.01 465.12 394.81 403.46 446.38 487.73 381.06 413.61 417.21 505.55 365.76 421.22 385.39 518.04 349.36 426.05 351.88 524.81 332.38 427.96 317.71 525.66 315.32 426.9 283.91 520.56 298.71 422.88 251.51 509.67 283.04 416.05 221.49 493.32 268.8 406.6 194.77 472.01 256.42 394.81 172.15 446.38 246.27 381.06 154.33 417.21 238.67 365.76 141.85 385.39 233.84 349.36 135.07 351.88 231.92 332.38 134.23 317.71 232.99 315.32 139.32 283.91 237 298.71 150.21 251.51 243.84 283.04 166.56 221.49 253.29 268.8 187.88 194.77 265.07 256.42 213.51 172.15 278.82 246.27 242.68 154.33 294.13 238.67 274.5 141.85 310.52 233.84 308 135.07 327.51 231.92 342.17 134.23 344.56 232.99 375.97 139.32 361.18 237 408.38 150.21 376.84 243.84 438.39 166.56 391.08 253.29 465.12 187.88 403.46 265.07 487.73 213.51 413.61 278.82 505.55 242.68 421.22 294.13 518.04 274.5 426.05 310.52 524.81 308 427.96 327.51 525.66 342.17 426.9 344.56 520.56 375.97 422.88 361.18 509.67 408.38 416.05 376.84 493.32 438.39"/><polygon class="cls-1" points="423.29 104.59 236.6 104.59 104.59 236.6 104.59 423.29 236.6 555.29 423.29 555.29 555.29 423.29 555.29 236.6 423.29 104.59"/></svg>