<?xml version="1.0" encoding="utf-8"?>
<!-- Generator: Adobe Illustrator 23.0.2, SVG Export Plug-In . SVG Version: 6.00 Build 0)  -->
<svg version="1.1" id="Calque_1" xmlns="http://www.w3.org/2000/svg" xmlns:xlink="http://www.w3.org/1999/xlink" x="0px" y="0px"
	 viewBox="0 0 500 300" style="enable-background:new 0 0 500 300;" xml:space="preserve">
<style type="text/css">
	.st0{fill:#408BCE;}
</style>
<path class="st0" d="M353.2,111.7l-3-3.4L297.8,155l-21.4-19l53.9-48l-3-3.4l-51.2,45.6V96.4l34-30.3l-3-3.4l-31,27.6v-38h-4.5v42
	l-18.8,16.7V52.4h-4.5v58.7l-20.1-17.8V52.4h-4.5v36.8l-31.1-27.7l-3,3.4l34.1,30.3v35.2l-51.5-45.9l-3,3.4l54.5,48.6v0.5l-20.2,18
	L151,108.5l-3,3.4l52.1,46.2l-52.7,47l3,3.4l53.1-47.3l19,16.9l-54.9,48.9l3,3.4l53.1-47.3v38l-33.3,29.6l3,3.4l30.3-27v39.2h4.5
	V223l20.1-17.9v61.2h4.5V205l18.8,16.7v44.7h4.5v-40.6L308,254l3-3.4l-34.8-31v-36.3l52.8,47l3-3.4l-54-48.1l19.9-17.7l51.7,45.9
	l3-3.4L301.2,158L353.2,111.7z M252.9,162.5l18.3,16.3l-18.3,16.3V162.5z M248.3,194.9l-19-16.9l19-16.9V194.9z M252.9,121.1
	l16.7,14.9l-16.7,14.9V121.1z M248.3,152.4l-17.5-15.6l17.5-15.6V152.4z M271.6,131.8L254,116.1l17.6-15.7V131.8z M247.2,116.1
	l-19,16.9V99.3L247.2,116.1z M206.9,158.1l20.5-18.3l18.9,16.9L225.9,175L206.9,158.1z M228.2,183.1l19,16.9l-19,17V183.1z
	 M254.1,200l17.5-15.6v31.2L254.1,200z M274.5,175.7l-21.3-19l19.8-17.7l21.4,19L274.5,175.7z"/>
<path d="M352.7,103.2l-3-3.4l-52.4,46.7l-21.4-19l53.9-48l-3-3.4l-51.2,45.6V87.9l34-30.3l-3-3.4l-31,27.6v-38h-4.5v42l-18.8,16.7
	V43.8h-4.5v58.7l-20.1-17.8V43.8h-4.5v36.8L192,53l-3,3.4l34.1,30.3v35.2l-51.5-45.9l-3,3.4l54.5,48.6v0.5l-20.2,18l-52.5-46.6
	l-3,3.4l52.1,46.2l-52.7,47l3,3.4l53.1-47.3l19,16.9L167,218.4l3,3.4l53.1-47.3v38l-33.3,29.6l3,3.4l30.3-27v39.2h4.5v-43.3
	l20.1-17.9v61.2h4.5v-61.3l18.8,16.7v44.7h4.5v-40.6l31.8,28.3l3-3.4l-34.8-31v-36.3l52.8,47l3-3.4l-54-48.1l19.9-17.7l51.7,45.9
	l3-3.4l-51.3-45.6L352.7,103.2z M252.3,154l18.3,16.3l-18.3,16.3V154z M247.8,186.3l-19-16.9l19-16.9V186.3z M252.3,112.6l16.7,14.9
	l-16.7,14.9V112.6z M247.8,143.9l-17.5-15.6l17.5-15.6V143.9z M271.1,123.2l-17.6-15.6l17.6-15.7V123.2z M246.7,107.6l-19,16.9V90.7
	L246.7,107.6z M206.4,149.6l20.5-18.3l18.9,16.9l-20.5,18.2L206.4,149.6z M227.7,174.6l19,16.9l-19,17V174.6z M253.5,191.5
	l17.5-15.6V207L253.5,191.5z M274,167.2l-21.3-19l19.8-17.7l21.4,19L274,167.2z"/>
</svg>
